<?xml version="1.0" encoding="utf-8"?>
<svg version="1.1" xmlns:xlink="http://www.w3.org/1999/xlink" width="13px" height="13px" xmlns="http://www.w3.org/2000/svg">
  <g transform="matrix(1 0 0 1 -379 -1528 )">
    <path d="M 385.5 1528  C 389.14 1528  392 1530.86  392 1534.5  C 392 1538.14  389.14 1541  385.5 1541  C 381.86 1541  379 1538.14  379 1534.5  C 379 1530.86  381.86 1528  385.5 1528  Z " fill-rule="nonzero" fill="#797979" stroke="none" />
    <path d="M 385.5 1528.5  C 388.86 1528.5  391.5 1531.14  391.5 1534.5  C 391.5 1537.86  388.86 1540.5  385.5 1540.5  C 382.14 1540.5  379.5 1537.86  379.5 1534.5  C 379.5 1531.14  382.14 1528.5  385.5 1528.5  Z " stroke-width="1" stroke="#797979" fill="none" />
  </g>
</svg>