<?xml version="1.0" encoding="utf-8"?>
<svg version="1.1" xmlns:xlink="http://www.w3.org/1999/xlink" width="13px" height="13px" xmlns="http://www.w3.org/2000/svg">
  <g transform="matrix(1 0 0 1 -399 -1528 )">
    <path d="M 405.5 1528  C 409.14 1528  412 1530.86  412 1534.5  C 412 1538.14  409.14 1541  405.5 1541  C 401.86 1541  399 1538.14  399 1534.5  C 399 1530.86  401.86 1528  405.5 1528  Z " fill-rule="nonzero" fill="#ffffff" stroke="none" />
    <path d="M 405.5 1528.5  C 408.86 1528.5  411.5 1531.14  411.5 1534.5  C 411.5 1537.86  408.86 1540.5  405.5 1540.5  C 402.14 1540.5  399.5 1537.86  399.5 1534.5  C 399.5 1531.14  402.14 1528.5  405.5 1528.5  Z " stroke-width="1" stroke="#797979" fill="none" />
  </g>
</svg>