<?xml version="1.0" encoding="utf-8"?>
<svg version="1.1" xmlns:xlink="http://www.w3.org/1999/xlink" width="155px" height="89px" xmlns="http://www.w3.org/2000/svg">
  <g transform="matrix(1 0 0 1 -17 -208 )">
    <path d="M 17 208  L 172 208  L 172 297  L 17 297  L 17 208  " fill-rule="nonzero" fill="#cccccc" stroke="none" />
    <path d="M 23 214  L 166 214  L 166 291  L 23 291  L 23 214  " fill-rule="nonzero" fill="#ffffff" stroke="none" />
    <path d="M 104.275 234.7  C 100.537 234.7  97.6 231.763  97.6 228.025  C 97.6 224.287  100.537 221.35  104.275 221.35  C 108.013 221.35  110.95 224.287  110.95 228.025  C 110.95 231.763  108.013 234.7  104.275 234.7  " fill-rule="nonzero" fill="#cccccc" stroke="none" />
    <path d="M 25 289  L 25 248.85  L 59.75 230.6  L 108.4 263.850322580645  L 136.2 241.55  L 164 263.850322580645  L 164 289  L 25 289  " fill-rule="nonzero" fill="#169bd5" stroke="none" />
  </g>
</svg>