<?xml version="1.0" standalone="no"?><!DOCTYPE svg PUBLIC "-//W3C//DTD SVG 1.1//EN" "http://www.w3.org/Graphics/SVG/1.1/DTD/svg11.dtd"><svg t="1660614840983" class="icon" viewBox="0 0 1024 1024" version="1.1" xmlns="http://www.w3.org/2000/svg" p-id="3454" width="18" height="18" xmlns:xlink="http://www.w3.org/1999/xlink"><defs><style type="text/css">@font-face { font-family: feedback-iconfont; src: url("//at.alicdn.com/t/font_1031158_u69w8yhxdu.woff2?t=1630033759944") format("woff2"), url("//at.alicdn.com/t/font_1031158_u69w8yhxdu.woff?t=1630033759944") format("woff"), url("//at.alicdn.com/t/font_1031158_u69w8yhxdu.ttf?t=1630033759944") format("truetype"); }
</style></defs><path d="M511.333 127.333c51.868 0 102.15 10.144 149.451 30.15 45.719 19.337 86.792 47.034 122.078 82.321 35.287 35.286 62.983 76.359 82.321 122.078 20.006 47.3 30.15 97.583 30.15 149.451s-10.144 102.15-30.15 149.451c-19.337 45.719-47.034 86.792-82.321 122.078-35.286 35.287-76.359 62.983-122.078 82.321-47.3 20.006-97.583 30.15-149.451 30.15s-102.15-10.144-149.451-30.15c-45.719-19.337-86.792-47.034-122.078-82.321-35.287-35.286-62.983-76.359-82.321-122.078-20.006-47.3-30.15-97.583-30.15-149.451s10.144-102.15 30.15-149.451c19.337-45.719 47.034-86.792 82.321-122.078 35.286-35.287 76.359-62.983 122.078-82.321 47.301-20.006 97.583-30.15 149.451-30.15m0-64c-247.424 0-448 200.576-448 448s200.576 448 448 448 448-200.576 448-448-200.576-448-448-448z" fill="#ffffff" p-id="3455"></path><path d="M702.856 543.333H511.333c-17.673 0-32-14.326-32-32v-286.73c0-17.673 14.327-32 32-32s32 14.327 32 32v254.73h159.522c17.673 0 32 14.327 32 32s-14.326 32-31.999 32z" fill="#ffffff" p-id="3456"></path></svg>