<?xml version="1.0" encoding="utf-8"?>
<svg version="1.1" xmlns:xlink="http://www.w3.org/1999/xlink" width="375px" height="239px" xmlns="http://www.w3.org/2000/svg">
  <g transform="matrix(1 0 0 1 1 -51 )">
    <path d="M -1 51  L 374 51  L 374 290  L -1 290  L -1 51  " fill-rule="nonzero" fill="#cccccc" stroke="none" />
    <path d="M 16 68  L 357 68  L 357 273  L 16 273  L 16 68  " fill-rule="nonzero" fill="#ffffff" stroke="none" />
    <path d="M 211.925 122.7  C 201.887 122.7  194 114.813  194 104.775  C 194 94.737  201.887 86.85  211.925 86.85  C 221.963 86.85  229.85 94.737  229.85 104.775  C 229.85 114.813  221.963 122.7  211.925 122.7  " fill-rule="nonzero" fill="#cccccc" stroke="none" />
    <path d="M 22 267  L 22 160.85  L 104.25 112.6  L 219.4 193.1968  L 285.2 141.55  L 351 193.1968  L 351 267  L 22 267  " fill-rule="nonzero" fill="#169bd5" stroke="none" />
  </g>
</svg>