<?xml version="1.0" encoding="utf-8"?>
<svg version="1.1" xmlns:xlink="http://www.w3.org/1999/xlink" width="119px" height="103px" xmlns="http://www.w3.org/2000/svg">
  <g transform="matrix(1 0 0 1 -220 -625 )">
    <path d="M 220 625  L 339 625  L 339 728  L 220 728  L 220 625  " fill-rule="nonzero" fill="#cccccc" stroke="none" />
    <path d="M 227 632  L 332 632  L 332 721  L 227 721  L 227 632  " fill-rule="nonzero" fill="#ffffff" stroke="none" />
    <path d="M 289.605 655.9  C 285.279 655.9  281.88 652.501  281.88 648.175  C 281.88 643.849  285.279 640.45  289.605 640.45  C 293.931 640.45  297.33 643.849  297.33 648.175  C 297.33 652.501  293.931 655.9  289.605 655.9  " fill-rule="nonzero" fill="#cccccc" stroke="none" />
    <path d="M 230 719  L 230 672.8  L 255 651.8  L 290 675.376470588235  L 310 664.4  L 330 675.376470588235  L 330 719  L 230 719  " fill-rule="nonzero" fill="#169bd5" stroke="none" />
  </g>
</svg>