<?xml version="1.0" encoding="utf-8"?>
<svg version="1.1" xmlns:xlink="http://www.w3.org/1999/xlink" width="103px" height="102px" xmlns="http://www.w3.org/2000/svg">
  <g transform="matrix(1 0 0 1 -21 -87 )">
    <path d="M 21 87  L 124 87  L 124 189  L 21 189  L 21 87  " fill-rule="nonzero" fill="#cccccc" stroke="none" />
    <path d="M 28 94  L 117 94  L 117 182  L 28 182  L 28 94  " fill-rule="nonzero" fill="#ffffff" stroke="none" />
    <path d="M 82.21 117.6  C 77.926 117.6  74.56 114.234  74.56 109.95  C 74.56 105.666  77.926 102.3  82.21 102.3  C 86.494 102.3  89.86 105.666  89.86 109.95  C 89.86 114.234  86.494 117.6  82.21 117.6  " fill-rule="nonzero" fill="#cccccc" stroke="none" />
    <path d="M 31 180  L 31 134.35  L 52 113.6  L 81.4 130.683495145631  L 98.2 126.05  L 115 130.683495145631  L 115 180  L 31 180  " fill-rule="nonzero" fill="#169bd5" stroke="none" />
  </g>
</svg>