<?xml version="1.0" encoding="utf-8"?>
<svg version="1.1" xmlns:xlink="http://www.w3.org/1999/xlink" width="375px" height="39px" xmlns="http://www.w3.org/2000/svg">
  <g transform="matrix(1 0 0 1 1 -789 )">
    <path d="M -1 789  L 374 789  L 374 828  L -1 828  L -1 789  " fill-rule="nonzero" fill="#cccccc" stroke="none" />
    <path d="M 2 792  L 371 792  L 371 825  L 2 825  L 2 792  " fill-rule="nonzero" fill="#ffffff" stroke="none" />
    <path d="M 196.925 800.7  C 195.287 800.7  194 799.413  194 797.775  C 194 796.137  195.287 794.85  196.925 794.85  C 198.563 794.85  199.85 796.137  199.85 797.775  C 199.85 799.413  198.563 800.7  196.925 800.7  " fill-rule="nonzero" fill="#cccccc" stroke="none" />
    <path d="M 3 824  L 3 806.95  L 94.75 799.2  L 223.2 822.0656  L 296.6 803.85  L 370 822.0656  L 370 824  L 3 824  " fill-rule="nonzero" fill="#169bd5" stroke="none" />
  </g>
</svg>