<?xml version="1.0" encoding="utf-8"?>
<svg version="1.1" xmlns:xlink="http://www.w3.org/1999/xlink" width="13px" height="13px" xmlns="http://www.w3.org/2000/svg">
  <g transform="matrix(1 0 0 1 -379 -1608 )">
    <path d="M 385.5 1608  C 389.14 1608  392 1610.86  392 1614.5  C 392 1618.14  389.14 1621  385.5 1621  C 381.86 1621  379 1618.14  379 1614.5  C 379 1610.86  381.86 1608  385.5 1608  Z " fill-rule="nonzero" fill="#797979" stroke="none" />
    <path d="M 385.5 1608.5  C 388.86 1608.5  391.5 1611.14  391.5 1614.5  C 391.5 1617.86  388.86 1620.5  385.5 1620.5  C 382.14 1620.5  379.5 1617.86  379.5 1614.5  C 379.5 1611.14  382.14 1608.5  385.5 1608.5  Z " stroke-width="1" stroke="#797979" fill="none" />
  </g>
</svg>