<?xml version="1.0" encoding="utf-8"?>
<svg version="1.1" xmlns:xlink="http://www.w3.org/1999/xlink" width="13px" height="13px" xmlns="http://www.w3.org/2000/svg">
  <g transform="matrix(1 0 0 1 -399 -1608 )">
    <path d="M 405.5 1608  C 409.14 1608  412 1610.86  412 1614.5  C 412 1618.14  409.14 1621  405.5 1621  C 401.86 1621  399 1618.14  399 1614.5  C 399 1610.86  401.86 1608  405.5 1608  Z " fill-rule="nonzero" fill="#ffffff" stroke="none" />
    <path d="M 405.5 1608.5  C 408.86 1608.5  411.5 1611.14  411.5 1614.5  C 411.5 1617.86  408.86 1620.5  405.5 1620.5  C 402.14 1620.5  399.5 1617.86  399.5 1614.5  C 399.5 1611.14  402.14 1608.5  405.5 1608.5  Z " stroke-width="1" stroke="#797979" fill="none" />
  </g>
</svg>