<?xml version="1.0" encoding="utf-8"?>
<svg version="1.1" xmlns:xlink="http://www.w3.org/1999/xlink" width="375px" height="39px" xmlns="http://www.w3.org/2000/svg">
  <g transform="matrix(1 0 0 1 1 -869 )">
    <path d="M -1 869  L 374 869  L 374 908  L -1 908  L -1 869  " fill-rule="nonzero" fill="#cccccc" stroke="none" />
    <path d="M 2 872  L 371 872  L 371 905  L 2 905  L 2 872  " fill-rule="nonzero" fill="#ffffff" stroke="none" />
    <path d="M 196.925 880.7  C 195.287 880.7  194 879.413  194 877.775  C 194 876.137  195.287 874.85  196.925 874.85  C 198.563 874.85  199.85 876.137  199.85 877.775  C 199.85 879.413  198.563 880.7  196.925 880.7  " fill-rule="nonzero" fill="#cccccc" stroke="none" />
    <path d="M 3 904  L 3 886.95  L 94.75 879.2  L 223.2 902.0656  L 296.6 883.85  L 370 902.0656  L 370 904  L 3 904  " fill-rule="nonzero" fill="#169bd5" stroke="none" />
  </g>
</svg>